<mxfile host="app.diagrams.net" modified="2020-08-04T18:21:14.323Z" agent="5.0 (Windows)" etag="EWjAGWblhnTAgeg-dQ6T" version="13.5.9" type="github">
  <diagram id="klp6TXF29yQG6K5nysAb" name="Page-1">
    <mxGraphModel dx="1210" dy="2500" grid="1" gridSize="10" guides="1" tooltips="1" connect="1" arrows="1" fold="1" page="1" pageScale="1" pageWidth="1200" pageHeight="1920" math="0" shadow="0">
      <root>
        <mxCell id="0" />
        <mxCell id="1" parent="0" />
        <mxCell id="Dbzw-91hEqC1uPqUuHIf-1" value="" style="pointerEvents=1;shadow=0;dashed=0;html=1;strokeColor=none;fillColor=#505050;labelPosition=center;verticalLabelPosition=bottom;verticalAlign=top;outlineConnect=0;align=center;shape=mxgraph.office.devices.cell_phone_iphone_standalone;" vertex="1" parent="1">
          <mxGeometry x="140" y="-10" width="230" height="360" as="geometry" />
        </mxCell>
        <mxCell id="Dbzw-91hEqC1uPqUuHIf-2" value="" style="rounded=0;whiteSpace=wrap;html=1;" vertex="1" parent="1">
          <mxGeometry x="740" y="60" width="440" height="440" as="geometry" />
        </mxCell>
        <mxCell id="Dbzw-91hEqC1uPqUuHIf-7" style="edgeStyle=orthogonalEdgeStyle;rounded=0;orthogonalLoop=1;jettySize=auto;html=1;entryX=0;entryY=0;entryDx=0;entryDy=0;" edge="1" parent="1" source="Dbzw-91hEqC1uPqUuHIf-4" target="Dbzw-91hEqC1uPqUuHIf-6">
          <mxGeometry relative="1" as="geometry" />
        </mxCell>
        <mxCell id="Dbzw-91hEqC1uPqUuHIf-4" value="Cache " style="ellipse;whiteSpace=wrap;html=1;aspect=fixed;" vertex="1" parent="1">
          <mxGeometry x="180" y="50" width="130" height="130" as="geometry" />
        </mxCell>
        <mxCell id="Dbzw-91hEqC1uPqUuHIf-5" value="" style="shape=cylinder2;whiteSpace=wrap;html=1;boundedLbl=1;backgroundOutline=1;size=15;" vertex="1" parent="1">
          <mxGeometry x="215" y="200" width="60" height="80" as="geometry" />
        </mxCell>
        <mxCell id="Dbzw-91hEqC1uPqUuHIf-8" style="edgeStyle=orthogonalEdgeStyle;rounded=0;orthogonalLoop=1;jettySize=auto;html=1;entryX=1;entryY=1;entryDx=0;entryDy=0;" edge="1" parent="1" source="Dbzw-91hEqC1uPqUuHIf-6" target="Dbzw-91hEqC1uPqUuHIf-4">
          <mxGeometry relative="1" as="geometry" />
        </mxCell>
        <mxCell id="Dbzw-91hEqC1uPqUuHIf-6" value="Cache " style="ellipse;whiteSpace=wrap;html=1;aspect=fixed;" vertex="1" parent="1">
          <mxGeometry x="840" y="180" width="190" height="190" as="geometry" />
        </mxCell>
        <mxCell id="Dbzw-91hEqC1uPqUuHIf-11" value="&lt;font style=&quot;font-size: 15px&quot;&gt;HTTP -ETAG&lt;/font&gt;" style="edgeLabel;html=1;align=center;verticalAlign=middle;resizable=0;points=[];" vertex="1" connectable="0" parent="1">
          <mxGeometry x="700" y="420" as="geometry">
            <mxPoint x="72" y="-116" as="offset" />
          </mxGeometry>
        </mxCell>
        <mxCell id="Dbzw-91hEqC1uPqUuHIf-12" value="" style="pointerEvents=1;shadow=0;dashed=0;html=1;strokeColor=none;fillColor=#505050;labelPosition=center;verticalLabelPosition=bottom;verticalAlign=top;outlineConnect=0;align=center;shape=mxgraph.office.devices.cell_phone_iphone_standalone;" vertex="1" parent="1">
          <mxGeometry x="150" y="350" width="230" height="360" as="geometry" />
        </mxCell>
      </root>
    </mxGraphModel>
  </diagram>
</mxfile>
